PathFileType	4	(X/Y/Z)	C:/Users/CLatella/Desktop/xsens/test 26Settembre2016/Meri-002.trc	
DataRate	CameraRate	NumFrames	NumMarkers	Units	OrigDataRate	OrigDataStartFrame	OrigNumFrames	
240.00	240.00	4	64	mm	240.00	928	1060	
Frame#	Time	pHipOrigin			pRightASI			pLeftASI			pRightCSI			pLeftCSI			pRightIschialTub			pLeftIschialTub			pSacrum			pL5SpinalProcess			pL3SpinalProcess			pT12SpinalProcess			pPX			pIJ			pT4SpinalProcess			pT8SpinalProcess			pC7SpinalProcess			pTopOfHead			pRightAuricularis			pLeftAuricularis			pBackOfHead			pRightAcromion			pLeftAcromion			pRightArmLatEpicondyle			pRightArmMedEpicondyle			pLeftArmLatEpicondyle			pLeftArmMedEpicondyle			pRightUlnarStyloid			pRightRadialStyloid			pRightOlecranon			pLeftUlnarStyloid			pLeftRadialStyloid			pLeftOlecranon			pRightTopOfHand			pRightPinky			pRightBallHand			pLeftTopOfHand			pLeftPinky			pLeftBallHand			pRightGreaterTrochanter			pRightKneeLatEpicondyle			pRightKneeMedEpicondyle			pRightPatella			pLeftGreaterTrochanter			pLeftKneeLatEpicondyle			pLeftKneeMedEpicondyle			pLeftPatella			pRightLatMalleolus			pRightMedMalleolus			pRightTibialTub			pLeftLatMalleolus			pLeftMedMalleolus			pLeftTibialTub			pRightHeelFoot			pRightFirstMetatarsal			pRightFifthMetatarsal			pRightPivotFoot			pRightHeelCenter			pRightToe			pLeftHeelFoot			pLeftFirstMetatarsal			pLeftFifthMetatarsal			pLeftPivotFoot			pLeftHeelCenter			pLeftToe			
		X1	Y1	Z1	X2	Y2	Z2	X3	Y3	Z3	X4	Y4	Z4	X5	Y5	Z5	X6	Y6	Z6	X7	Y7	Z7	X8	Y8	Z8	X9	Y9	Z9	X10	Y10	Z10	X11	Y11	Z11	X12	Y12	Z12	X13	Y13	Z13	X14	Y14	Z14	X15	Y15	Z15	X16	Y16	Z16	X17	Y17	Z17	X18	Y18	Z18	X19	Y19	Z19	X20	Y20	Z20	X21	Y21	Z21	X22	Y22	Z22	X23	Y23	Z23	X24	Y24	Z24	X25	Y25	Z25	X26	Y26	Z26	X27	Y27	Z27	X28	Y28	Z28	X29	Y29	Z29	X30	Y30	Z30	X31	Y31	Z31	X32	Y32	Z32	X33	Y33	Z33	X34	Y34	Z34	X35	Y35	Z35	X36	Y36	Z36	X37	Y37	Z37	X38	Y38	Z38	X39	Y39	Z39	X40	Y40	Z40	X41	Y41	Z41	X42	Y42	Z42	X43	Y43	Z43	X44	Y44	Z44	X45	Y45	Z45	X46	Y46	Z46	X47	Y47	Z47	X48	Y48	Z48	X49	Y49	Z49	X50	Y50	Z50	X51	Y51	Z51	X52	Y52	Z52	X53	Y53	Z53	X54	Y54	Z54	X55	Y55	Z55	X56	Y56	Z56	X57	Y57	Z57	X58	Y58	Z58	X59	Y59	Z59	X60	Y60	Z60	X61	Y61	Z61	X62	Y62	Z62	X63	Y63	Z63	X64	Y64	Z64	

928	3.863	167.19174	0.29963	926.84549	239.05223	-113.80824	1003.00063	218.42792	124.84449	1003.40013	199.95093	-96.42988	1073.51280	182.92215	100.82441	1073.86236	120.54984	-53.28363	877.80658	112.06041	45.34352	877.95639	98.72702	-5.54310	947.76943	132.13541	-2.09739	1021.17799	136.33018	-2.44695	1125.74773	144.61986	-2.69664	1217.68321	293.63424	1.44820	1281.65353	308.56564	0.39950	1391.36687	172.33533	-3.69540	1388.57035	158.05312	-3.09614	1308.66988	180.92463	-2.89639	1438.15858	366.64330	1.49813	1615.13813	292.88517	-65.21876	1554.31390	299.37709	64.66945	1543.87690	251.88624	3.94509	1574.63858	223.02220	-175.48141	1400.60536	198.50274	173.38403	1392.71519	316.95519	-141.62359	1097.43300	311.21234	-81.29873	1104.52417	285.14481	150.86208	1083.40048	282.39824	90.08778	1088.14457	384.52103	-100.92429	881.65179	427.21784	-91.03660	898.93026	292.68542	-118.80202	1092.73885	344.27116	115.40625	863.32461	384.72078	96.18019	877.95639	263.42187	132.48497	1078.95602	536.83131	-119.40127	781.62638	456.58127	-113.20898	799.50411	418.77836	-93.03411	854.08612	489.19065	188.01580	785.82116	410.48868	166.84218	797.95604	376.48104	120.79953	837.20715	183.97084	-148.06556	901.27734	170.98701	-139.62608	520.45171	161.74852	-66.61702	516.65644	206.94223	-95.43113	520.05221	108.31508	127.74088	904.27361	96.77945	122.09791	523.34810	151.31152	72.95912	516.70637	153.55872	126.44250	521.40053	145.26905	-159.60120	95.38119	148.41513	-96.92926	90.98666	231.11212	-105.26887	481.99961	79.55091	179.12687	101.92304	87.39114	117.20401	94.13275	186.41779	112.90936	481.40035	107.51607	-123.59604	0.00000	255.03232	-114.35755	-0.09988	244.44551	-180.22551	0.94882	268.56547	-149.41389	0.44944	146.56743	-129.78833	4.39453	344.47092	-161.59871	-0.19975	42.19744	147.11675	5.54310	187.61630	120.64971	3.19602	184.86972	187.31667	3.59552	205.19440	153.85835	3.14608	81.84805	148.71476	9.23849	281.94880	157.00443	1.04869 
929	3.867	167.39149	0.34956	926.84549	239.15210	-113.80824	1003.05057	218.62767	124.89443	1003.45007	200.00087	-96.42988	1073.56274	183.02202	100.87435	1073.86236	120.84947	-53.18375	877.70670	112.36004	45.39346	877.90645	98.92677	-5.49316	947.66955	132.28522	-2.04745	1021.12805	136.23031	-2.39701	1125.69779	144.37017	-2.64670	1217.63328	293.18480	1.44820	1282.00310	307.81657	0.44944	1391.76637	171.58627	-3.64546	1388.57035	157.50381	-3.04621	1308.61994	180.07569	-2.89639	1438.20852	365.54467	1.64795	1615.43776	291.83648	-65.11889	1554.61352	298.27845	64.76932	1544.07665	250.78761	4.09490	1574.83833	222.17325	-175.48141	1400.65530	197.75367	173.38403	1392.81506	316.65556	-141.37390	1097.63275	310.91272	-81.04904	1104.77386	284.94506	150.76221	1083.60023	282.09861	89.98791	1088.39426	384.52103	-100.57472	881.95141	427.16791	-90.68704	899.32977	292.38579	-118.55233	1092.93860	344.22123	115.20650	863.62424	384.62090	95.98044	878.30595	263.17218	132.38510	1079.20571	536.93118	-118.90189	782.12576	456.68114	-112.75954	799.90361	418.82829	-92.63461	854.48562	489.29052	187.71617	786.22066	410.53862	166.59249	798.30560	376.43111	120.59978	837.50677	184.17059	-148.01563	901.22740	171.08689	-139.62608	520.45171	161.89833	-66.56708	516.65644	207.09204	-95.43113	520.00227	108.61471	127.84076	904.22367	96.92926	122.09791	523.34810	151.41140	72.90918	516.70637	153.70854	126.34262	521.35059	145.26905	-159.55126	95.38119	148.41513	-96.92926	90.98666	231.26193	-105.26887	481.94967	79.60085	179.02700	101.92304	87.39114	117.15407	94.13275	186.51767	112.85942	481.35041	107.51607	-123.59604	0.00000	255.03232	-114.30761	-0.09988	244.49545	-180.17557	0.94882	268.56547	-149.36395	0.44944	146.56743	-129.73839	4.39453	344.52085	-161.49883	-0.19975	42.24738	147.06681	5.54310	187.61630	120.54984	3.19602	184.91966	187.21680	3.59552	205.24434	153.75847	3.14608	81.84805	148.66482	9.23849	281.99873	156.95449	1.04869 
930	3.871	167.64118	0.39950	926.79555	239.30192	-113.75830	1003.10051	218.82742	124.94437	1003.50001	200.05081	-96.37995	1073.56274	183.12190	100.87435	1073.91230	121.09915	-53.13381	877.65676	112.65967	45.49333	877.80658	99.12652	-5.44322	947.61961	132.43503	-1.99751	1021.02817	136.18037	-2.34708	1125.59792	144.07054	-2.59677	1217.58334	292.78530	1.44820	1282.35266	307.06751	0.44944	1392.16587	170.83720	-3.59552	1388.57035	157.00443	-2.99627	1308.61994	179.17681	-2.79652	1438.25846	364.44603	1.89764	1615.73738	290.83772	-64.96907	1554.91315	297.22976	64.91913	1544.27640	249.73892	4.19477	1575.03808	221.37425	-175.48141	1400.65530	197.00460	173.43396	1392.91494	316.35594	-141.07427	1097.88244	310.61309	-80.74942	1105.02355	284.69537	150.66233	1083.84992	281.84892	89.93797	1088.64395	384.52103	-100.22516	882.25104	427.11797	-90.33747	899.67933	292.13611	-118.25270	1093.13835	344.17129	115.05668	863.92387	384.57097	95.83063	878.65552	262.97243	132.28522	1079.40546	537.03106	-118.45245	782.62514	456.73108	-112.31010	800.30312	418.82829	-92.23511	854.83519	489.34046	187.46649	786.57022	410.53862	166.39274	798.65517	376.43111	120.40003	837.85634	184.37034	-147.96569	901.22740	171.23670	-139.57614	520.40177	161.99821	-66.51714	516.65644	207.19191	-95.38119	520.00227	108.86439	127.94063	904.22367	97.07908	122.09791	523.34810	151.51127	72.80931	516.70637	153.85835	126.29269	521.35059	145.26905	-159.50132	95.38119	148.41513	-96.82939	90.98666	231.36181	-105.21894	481.94967	79.65078	179.02700	101.92304	87.44108	117.10413	94.13275	186.66748	112.80948	481.35041	107.51607	-123.49617	0.00000	255.03232	-114.30761	-0.09988	244.44551	-180.17557	0.89888	268.56547	-149.31401	0.44944	146.56743	-129.68846	4.39453	344.47092	-161.54877	-0.19975	42.29731	147.06681	5.59303	187.66624	120.49990	3.19602	184.96960	187.16686	3.64546	205.24434	153.70854	3.19602	81.89799	148.61488	9.28843	281.99873	156.80468	1.04869 
931	3.875	167.84093	0.49938	926.79555	239.40179	-113.70836	1003.15044	218.97723	124.94437	1003.54995	200.10075	-96.37995	1073.56274	183.22177	100.92429	1073.91230	121.39878	-53.03394	877.60682	112.95929	45.54327	877.75664	99.32628	-5.39328	947.51974	132.53491	-1.94757	1020.97824	136.13043	-2.29714	1125.54798	143.82085	-2.59677	1217.53340	292.33586	1.44820	1282.70222	306.31844	0.49938	1392.56538	170.08813	-3.54558	1388.57035	156.50505	-2.94633	1308.57000	178.32787	-2.74658	1438.30840	363.34740	2.09739	1615.98707	289.83897	-64.81926	1555.16284	296.13113	65.06895	1544.47615	248.64029	4.34459	1575.23783	220.57524	-175.43148	1400.70524	196.25554	173.48390	1393.01482	316.10625	-140.77465	1098.08219	310.31346	-80.49973	1105.27324	284.49562	150.61239	1084.09961	281.59923	89.83809	1088.89364	384.52103	-99.87559	882.60060	427.11797	-89.98791	900.07883	291.83648	-117.95307	1093.33810	344.12135	114.90687	864.22349	384.52103	95.68082	878.95514	262.77268	132.23528	1079.65515	537.13093	-117.95307	783.07458	456.83096	-111.86066	800.65268	418.87823	-91.88554	855.18475	489.39040	187.26673	786.96972	410.58856	166.24292	799.00473	376.38117	120.25021	838.15597	184.52016	-147.91575	901.22740	171.33658	-139.52620	520.40177	162.14802	-66.46721	516.60650	207.34173	-95.33125	519.95233	109.16402	128.04051	904.22367	97.17895	122.09791	523.34810	151.56121	72.75937	516.70637	154.00816	126.24275	521.35059	145.26905	-159.45138	95.33125	148.41513	-96.82939	90.98666	231.46168	-105.21894	481.89973	79.65078	178.97706	101.97298	87.44108	117.10413	94.18268	186.76736	112.75954	481.35041	107.51607	-123.44623	0.00000	255.03232	-114.25768	-0.09988	244.44551	-180.12563	0.89888	268.56547	-149.31401	0.44944	146.56743	-129.63852	4.34459	344.47092	-161.54877	-0.19975	42.29731	147.01687	5.59303	187.66624	120.44996	3.24596	184.96960	187.11692	3.64546	205.29428	153.65860	3.19602	81.94792	148.61488	9.28843	282.04867	156.75474	1.04869 
